<svg id="circle" xmlns="http://www.w3.org/2000/svg" width="118.727" height="118.729" viewBox="0 0 118.727 118.729">
  <g id="Ellipse_5" data-name="Ellipse 5" fill="#fff" stroke="#186aa5" stroke-width="4">
    <ellipse cx="59.363" cy="59.365" rx="59.363" ry="59.365" stroke="none"/>
    <ellipse cx="59.363" cy="59.365" rx="57.363" ry="57.365" fill="none"/>
  </g>
  <g id="support-umbrella-svgrepo-com" transform="translate(22 21)">
    <path id="Path_166" data-name="Path 166" d="M26.2,64.432a7.258,7.258,0,0,1,6.954,5.183h.6a7.256,7.256,0,0,1,13.907,0h.6a7.256,7.256,0,0,1,13.907,0h.6a7.256,7.256,0,0,1,13.907,0h.6a7.256,7.256,0,0,1,13.907,0h.3a36.28,36.28,0,0,0-72.559,0h.3A7.258,7.258,0,0,1,26.2,64.432Z" transform="translate(-17.728 -28.233)" fill="#ff8c29"/>
    <path id="Path_167" data-name="Path 167" d="M18.944,69.615h.3a7.256,7.256,0,0,1,13.907,0h.6a7.256,7.256,0,0,1,13.907,0h.6a7.258,7.258,0,0,1,6.954-5.183v-31.1A36.279,36.279,0,0,0,18.944,69.615Z" transform="translate(-17.729 -28.234)" fill="#f0353d"/>
    <path id="Path_168" data-name="Path 168" d="M137.7,33.336c-11.753,0-21.289,16.094-21.377,36a7.256,7.256,0,0,1,13.819.277h.6a7.256,7.256,0,0,1,13.907,0h.6a7.256,7.256,0,0,1,13.819-.277C158.986,49.43,149.45,33.336,137.7,33.336Z" transform="translate(-100.204 -28.234)" fill="#e6eaea"/>
    <path id="Path_169" data-name="Path 169" d="M116.32,69.338a7.256,7.256,0,0,1,13.819.277h.6a7.258,7.258,0,0,1,6.954-5.183v-31.1C125.944,33.336,116.408,49.43,116.32,69.338Z" transform="translate(-100.203 -28.234)" fill="#cdd4d5"/>
    <path id="Path_170" data-name="Path 170" d="M212.986,33.336c-4.249,0-7.7,15.912-7.772,35.665.08.2.152.4.214.614h.6a7.256,7.256,0,0,1,13.907,0h.6c.062-.209.134-.413.214-.614C220.689,49.248,217.236,33.336,212.986,33.336Z" transform="translate(-175.493 -28.234)" fill="#ff8c29"/>
    <path id="Path_171" data-name="Path 171" d="M205.213,69c.08.2.152.4.214.614h.6a7.258,7.258,0,0,1,6.954-5.183v-31.1C208.736,33.336,205.283,49.248,205.213,69Z" transform="translate(-175.492 -28.234)" fill="#f0353d"/>
    <g id="Group_8" data-name="Group 8" transform="translate(57.217 15.549)">
      <path id="Path_172" data-name="Path 172" d="M389.848,110.506a1.215,1.215,0,0,1-1.107-.712,36.118,36.118,0,0,0-3.63-6.267,1.215,1.215,0,1,1,1.966-1.427,38.545,38.545,0,0,1,3.876,6.689,1.215,1.215,0,0,1-1.105,1.718Z" transform="translate(-384.879 -101.598)" fill="#fff"/>
      <path id="Path_173" data-name="Path 173" d="M420.319,171.41a1.216,1.216,0,0,1-1.178-.92c-.32-1.281-.7-2.551-1.137-3.775a1.215,1.215,0,0,1,2.29-.812c.46,1.3.865,2.642,1.2,4a1.216,1.216,0,0,1-1.179,1.51Z" transform="translate(-412.876 -155.376)" fill="#fff"/>
    </g>
    <path id="Path_174" data-name="Path 174" d="M75.013,14.869a37.229,37.229,0,0,0-25.3-10.96V1.215a1.215,1.215,0,0,0-2.429,0V3.909A37.49,37.49,0,0,0,11.007,41.381,1.215,1.215,0,0,0,12.222,42.6h.3a1.215,1.215,0,0,0,1.164-.868,6.042,6.042,0,0,1,11.579,0,1.215,1.215,0,0,0,1.164.868h.6l.033,0,.053,0H27.3a1.213,1.213,0,0,0,1.159-1.574,6.037,6.037,0,0,1,11.053,0c0,.12,0,.24,0,.361A1.215,1.215,0,0,0,40.727,42.6h.065c.032,0,.062,0,.094,0s.038,0,.058,0h.6a1.215,1.215,0,0,0,1.164-.868,6.084,6.084,0,0,1,4.575-4.189v33a1.216,1.216,0,0,0,.054.36A8.405,8.405,0,0,0,64.1,69.951a1.215,1.215,0,1,0-2.429,0,5.976,5.976,0,1,1-11.953,0V37.538a6.083,6.083,0,0,1,4.575,4.189,1.215,1.215,0,0,0,1.164.868h.6c.029,0,.058-.005.087-.007a1.212,1.212,0,0,0,1.344-1.207q0-.181,0-.361a6.037,6.037,0,0,1,11.176.3v.059A1.215,1.215,0,0,0,69.88,42.6l.053,0,.033,0h.6a1.215,1.215,0,0,0,1.164-.868,6.042,6.042,0,0,1,11.579,0,1.215,1.215,0,0,0,1.164.868h.3a1.215,1.215,0,0,0,1.215-1.215A37.249,37.249,0,0,0,75.013,14.869ZM19.477,34.983A8.5,8.5,0,0,0,13.672,37.3,35.156,35.156,0,0,1,38.363,7.813a27.477,27.477,0,0,0-5.969,7.2C28.684,21.268,26.451,29.359,26,38.06A8.519,8.519,0,0,0,19.477,34.983Zm14.512,0A8.465,8.465,0,0,0,28.5,37.006C29.583,21.976,36.188,9.85,44.635,6.969a31.4,31.4,0,0,0-2.775,8.3,121.028,121.028,0,0,0-2.294,21.8A8.437,8.437,0,0,0,33.989,34.983Zm14.512,0a8.519,8.519,0,0,0-6.527,3.085,120.422,120.422,0,0,1,2.26-22.283c1.63-7.49,3.5-9.469,4.266-9.469s2.636,1.979,4.267,9.469a120.424,120.424,0,0,1,2.26,22.283A8.518,8.518,0,0,0,48.5,34.983Zm14.512,0a8.436,8.436,0,0,0-5.578,2.087,121.023,121.023,0,0,0-2.294-21.8,31.4,31.4,0,0,0-2.775-8.3C60.814,9.85,67.418,21.976,68.5,37.007A8.463,8.463,0,0,0,63.013,34.983Zm14.512,0a8.519,8.519,0,0,0-6.519,3.076c-.455-8.7-2.688-16.792-6.4-23.042a27.481,27.481,0,0,0-5.969-7.2A35.157,35.157,0,0,1,83.33,37.3,8.5,8.5,0,0,0,77.524,34.983Z" transform="translate(-11.007)"/>
  </g>
</svg>
