<svg xmlns="http://www.w3.org/2000/svg" xmlns:xlink="http://www.w3.org/1999/xlink" width="172.424" height="154.916" viewBox="0 0 172.424 154.916">
  <defs>
    <linearGradient id="linear-gradient" x1="0.5" x2="0.5" y2="1" gradientUnits="objectBoundingBox">
      <stop offset="0" stop-color="#5feaef"/>
      <stop offset="1" stop-color="#545454"/>
    </linearGradient>
  </defs>
  <g id="circular-arrow-svgrepo-com" transform="translate(-13 -26.855)">
    <g id="Group_3" data-name="Group 3" transform="translate(13 26.855)">
      <path id="Path_17" data-name="Path 17" d="M23.1,123.742a2.348,2.348,0,0,0,3.788,0L49.43,96.156c1.046-1.28.554-2.317-1.1-2.317H36.359A2.358,2.358,0,0,1,33.938,90.9a62.49,62.49,0,1,1,61.028,75.907,7.481,7.481,0,1,0,0,14.962A77.458,77.458,0,1,0,18.7,90.883a3.638,3.638,0,0,1-3.452,2.956H1.649C0,93.839-.5,94.876.549,96.156Z" transform="translate(0 -26.855)" fill="url(#linear-gradient)"/>
    </g>
    <g id="hospital-svgrepo-com" transform="translate(71.999 70.146)">
      <g id="Layer_2_18_" transform="translate(0.002)">
        <g id="Group_2" data-name="Group 2">
          <path id="Path_15" data-name="Path 15" d="M68.347,25.84H52.494V9.986A9.985,9.985,0,0,0,42.507,0H35.829a9.987,9.987,0,0,0-9.988,9.986V25.84H9.987A9.987,9.987,0,0,0,0,35.826v6.679A9.986,9.986,0,0,0,9.987,52.49H25.842V68.345a9.989,9.989,0,0,0,9.988,9.989h6.678a9.987,9.987,0,0,0,9.987-9.989V52.49H68.347a9.985,9.985,0,0,0,9.988-9.985V35.826A9.987,9.987,0,0,0,68.347,25.84ZM52.162,37.717c-.6,3.667-4.982,7.789-8.51,11.108,0,0-1.76,1.768-2.289,2.221a3.705,3.705,0,0,1-2.193,1.028,3.712,3.712,0,0,1-2.2-1.028c-.528-.453-2.289-2.221-2.289-2.221-3.528-3.319-7.908-7.439-8.51-11.108A8,8,0,0,1,27.4,31.362,7.9,7.9,0,0,1,33.209,28.5a7.118,7.118,0,0,1,.723-.038,8.443,8.443,0,0,1,5.235,1.884,8.451,8.451,0,0,1,5.239-1.884,7.075,7.075,0,0,1,.721.038,7.9,7.9,0,0,1,5.807,2.859A8,8,0,0,1,52.162,37.717Z" transform="translate(-0.002)" fill="#e74424"/>
          <path id="Path_16" data-name="Path 16" d="M166.793,134.542a16.271,16.271,0,0,0-1.656-.087,19.421,19.421,0,0,0-12.04,4.331,19.4,19.4,0,0,0-12.032-4.331,16.363,16.363,0,0,0-1.661.087c-6.112.654-10.478,2.8-13.346,6.57-2.843,3.731-3.79,8.645-2.82,14.6,1.385,8.432,11.449,17.9,19.557,25.528,0,0,4.046,4.062,5.261,5.1.916.784,2.9,2.362,5.044,2.362s4.129-1.577,5.041-2.362c1.214-1.042,5.26-5.1,5.26-5.1,8.108-7.628,18.174-17.1,19.557-25.528.97-5.959.024-10.873-2.82-14.6C177.268,137.346,172.906,135.2,166.793,134.542Z" transform="translate(-113.932 -121.93)" fill="#f7f1e6"/>
        </g>
      </g>
    </g>
    <text id="_24_7" data-name="24/7" transform="translate(61 160.855)" fill="#222" font-size="30" font-family="Poppins-Bold, Poppins" font-weight="700"><tspan x="-33" y="0">24/7</tspan></text>
  </g>
</svg>
