<svg id="circle" xmlns="http://www.w3.org/2000/svg" xmlns:xlink="http://www.w3.org/1999/xlink" width="118.727" height="118.729" viewBox="0 0 118.727 118.729">
  <defs>
    <linearGradient id="linear-gradient" x1="0.5" x2="0.5" y2="1" gradientUnits="objectBoundingBox">
      <stop offset="0" stop-color="#0070a1"/>
      <stop offset="1" stop-color="#003851"/>
    </linearGradient>
  </defs>
  <g id="Ellipse_5" data-name="Ellipse 5" fill="#fff" stroke="#186aa5" stroke-width="4">
    <ellipse cx="59.363" cy="59.365" rx="59.363" ry="59.365" stroke="none"/>
    <ellipse cx="59.363" cy="59.365" rx="57.363" ry="57.365" fill="none"/>
  </g>
  <g id="password-svgrepo-com" transform="translate(33 29.482)">
    <g id="Group_6" data-name="Group 6">
      <g id="Group_5" data-name="Group 5">
        <path id="Path_80" data-name="Path 80" d="M2,18H46v6h2V17a.945.945,0,0,0-1-1H41V4a4.012,4.012,0,0,0-4-4H11A4.012,4.012,0,0,0,7,4V16H1a.945.945,0,0,0-1,1V59a.945.945,0,0,0,1,1H32V58H2ZM9,4a2.006,2.006,0,0,1,2-2H37a2.006,2.006,0,0,1,2,2V16H9Z" fill="url(#linear-gradient)"/>
        <path id="Path_81" data-name="Path 81" d="M53,43H43a6.957,6.957,0,0,0-7,7V60h2V50a4.951,4.951,0,0,1,5-5h1.3l2.8,7.4a1.013,1.013,0,0,0,.9.6,1.738,1.738,0,0,0,1.1-.6L51.9,45H53a4.951,4.951,0,0,1,5,5V60h2V50A6.957,6.957,0,0,0,53,43Zm-4.9,6.2L46.5,45h3.2Z" fill="url(#linear-gradient)"/>
        <rect id="Rectangle_18" data-name="Rectangle 18" width="2" height="2" transform="translate(47 53.69)" fill="url(#linear-gradient)"/>
        <rect id="Rectangle_19" data-name="Rectangle 19" width="2" height="2" transform="translate(47 57.69)" fill="url(#linear-gradient)"/>
        <path id="Path_82" data-name="Path 82" d="M42,34v3a4.951,4.951,0,0,0,5,5h2a4.951,4.951,0,0,0,5-5V34a4.951,4.951,0,0,0-5-5H47A4.951,4.951,0,0,0,42,34Zm10,0v3a2.946,2.946,0,0,1-3,3H47a2.946,2.946,0,0,1-3-3V34a2.946,2.946,0,0,1,3-3h2A2.946,2.946,0,0,1,52,34Z" fill="url(#linear-gradient)"/>
        <rect id="Rectangle_20" data-name="Rectangle 20" width="2" height="7" transform="translate(41 52.69)" fill="url(#linear-gradient)"/>
        <rect id="Rectangle_21" data-name="Rectangle 21" width="2" height="7" transform="translate(53 52.69)" fill="url(#linear-gradient)"/>
        <path id="Path_83" data-name="Path 83" d="M24,23a7.982,7.982,0,0,0-4,14.9V51a.945.945,0,0,0,1,1h6a.945.945,0,0,0,1-1V37.9A7.982,7.982,0,0,0,24,23Zm2.6,13.4a.961.961,0,0,0-.6.9V50H22V37.3a.961.961,0,0,0-.6-.9A6,6,0,0,1,24,25a6,6,0,0,1,2.6,11.4Z" fill="url(#linear-gradient)"/>
        <rect id="Rectangle_22" data-name="Rectangle 22" width="4" height="2" transform="translate(22 29.69)" fill="url(#linear-gradient)"/>
        <rect id="Rectangle_23" data-name="Rectangle 23" width="2" height="18" transform="translate(6 20.69)" fill="url(#linear-gradient)"/>
        <rect id="Rectangle_24" data-name="Rectangle 24" width="2" height="4" transform="translate(6 41.69)" fill="url(#linear-gradient)"/>
      </g>
    </g>
  </g>
</svg>
