<svg id="Group_7" data-name="Group 7" xmlns="http://www.w3.org/2000/svg" width="118.727" height="118.729" viewBox="0 0 118.727 118.729">
  <g id="circle">
    <g id="Ellipse_5" data-name="Ellipse 5" fill="#fff" stroke="#186aa5" stroke-width="4">
      <ellipse cx="59.363" cy="59.365" rx="59.363" ry="59.365" stroke="none"/>
      <ellipse cx="59.363" cy="59.365" rx="57.363" ry="57.365" fill="none"/>
    </g>
  </g>
  <g id="men-and-women-to-consult-svgrepo-com" transform="translate(13.363 31.495)">
    <path id="Path_84" data-name="Path 84" d="M239.583,178.465a.866.866,0,0,1,.077-.53.891.891,0,0,1,.662-.479,21.029,21.029,0,0,1,2.453-.318c1.54-.138,2.315-.206,4.223-.4l.241-.024-.12-.312a4.876,4.876,0,0,0-1.082-1.09,6.954,6.954,0,0,1-.838-.828.663.663,0,0,1,.061-.785.829.829,0,0,1,.978-.15c1.368.545,3.206,1.581,4.366,2.042a2.192,2.192,0,0,1,1.229,1.983l.994,1.361a10.478,10.478,0,0,0-3.158,3.619l-1.252-.532a11.269,11.269,0,0,0-2.618-.219c-.825-.019-1.688-.041-2.586-.051l-.093-.37c-.612.006-1.188,0-1.352-.012a.593.593,0,0,1-.547-.474.631.631,0,0,1,.416-.623l.072-.025-.539.052c-.75.073-1.224-.243-1.19-.733a.7.7,0,0,1,.509-.582l-.212-.023C239.825,178.914,239.633,178.7,239.583,178.465Z" transform="translate(-193.491 -140.089)" fill="#fff"/>
    <path id="Path_85" data-name="Path 85" d="M358.329,73.613l.019-.023a3.021,3.021,0,0,0,.685-1.728,2.439,2.439,0,0,0-.681-1.963,1.266,1.266,0,0,0-1.18-.167,1.439,1.439,0,0,0-.882.621,12.028,12.028,0,0,0-1.323-2.23,6.379,6.379,0,0,0-3.534-1.336c-.07.346-.128.7-.2,1.073a6.653,6.653,0,0,1-.275,1.186,2.506,2.506,0,0,1-.4.648,2.59,2.59,0,0,0-.675,1.167,5.337,5.337,0,0,0,.184,1.043c.021.223.03.295.052.517l.167.951c.2-.007.643,0,.954,0a.19.19,0,0,1,.177.209,2.019,2.019,0,0,1-.33.946,2.368,2.368,0,0,1-.407.545l-.083.07.148.842a2.268,2.268,0,0,0,.486.7,2.41,2.41,0,0,0,.994.689,6.592,6.592,0,0,0,3.372.439,8.464,8.464,0,0,1,.813,1.638l.237.649A7.944,7.944,0,0,1,358.785,79a13.961,13.961,0,0,1,3.642-.717l-.2-.627c-2.116-.224-3.829-2.284-4.552-3.312l-.135-.192A2.077,2.077,0,0,0,358.329,73.613Z" transform="translate(-282.588 -53.934)" fill="#fff"/>
    <path id="Path_86" data-name="Path 86" d="M350.344,99.76c.238-.008.476,0,.714,0h.227q.065,0-.037-.008a.213.213,0,0,1-.1-.058c-.036-.052-.043-.061-.021-.027a.182.182,0,0,1-.028-.107.448.448,0,0,1,0,.056.465.465,0,0,0-.008.089c.008-.055.009-.062,0-.019,0,.017-.006.034-.01.052s-.014.064-.023.1-.018.059-.029.088l-.016.042q.037-.087.013-.031c-.022.046-.044.091-.067.136-.052.1-.1.2-.155.3a1.546,1.546,0,0,1-.09.147l-.054.077c-.016.021-.068.075,0,0a2.6,2.6,0,0,1-.189.213.387.387,0,0,0,0,.544.394.394,0,0,0,.544,0,2.278,2.278,0,0,0,.391-.49,4.256,4.256,0,0,0,.277-.527,1.883,1.883,0,0,0,.132-.363,1.229,1.229,0,0,0,.033-.532.582.582,0,0,0-.391-.421,1.428,1.428,0,0,0-.4-.023c-.238,0-.476,0-.714,0a.385.385,0,1,0,0,.769Z" transform="translate(-282.649 -79.938)" fill="#211715"/>
    <path id="Path_87" data-name="Path 87" d="M362.859,36.749a6.61,6.61,0,0,0-4.546,4.09,7.941,7.941,0,0,0-.383,1.362,6.366,6.366,0,0,1,3.535,1.334,12.044,12.044,0,0,1,1.324,2.23,1.438,1.438,0,0,1,.882-.621,1.265,1.265,0,0,1,1.18.167,2.437,2.437,0,0,1,.681,1.963A3.021,3.021,0,0,1,364.847,49a2.068,2.068,0,0,1-.808.566l.135.192c.818,1.164,2.906,3.649,5.41,3.3a13.287,13.287,0,0,1,1.673-1.856,9.526,9.526,0,0,0,2.845-5.976,8.463,8.463,0,0,0-1.23-4.665,7.816,7.816,0,0,0-5.636-4.092,9.88,9.88,0,0,0-4.37.277Z" transform="translate(-289.086 -29.346)" fill="#85807f"/>
    <path id="Path_88" data-name="Path 88" d="M352.486,113.145a3.32,3.32,0,0,0,.874,1.094,4.156,4.156,0,0,0,1.438.685,7.143,7.143,0,0,0,3.576.121c.484-.1.279-.845-.2-.742a6.309,6.309,0,0,1-3.1-.1,3.576,3.576,0,0,1-1.165-.507,2.643,2.643,0,0,1-.753-.938c-.222-.442-.885-.053-.664.388Z" transform="translate(-284.654 -90.904)" fill="#211715"/>
    <path id="Path_89" data-name="Path 89" d="M349.876,58.005a11.181,11.181,0,0,0-.517,2.08,4.614,4.614,0,0,1-.541,1.888,4.017,4.017,0,0,0-.855,1.4,1.865,1.865,0,0,0,.071.862,5.5,5.5,0,0,1,.139.866.4.4,0,0,0,.385.385.387.387,0,0,0,.385-.385,6.275,6.275,0,0,0-.112-.864,1.6,1.6,0,0,1-.11-.725c.115-.508.615-.882.872-1.318a5.768,5.768,0,0,0,.517-1.946,10.942,10.942,0,0,1,.508-2.036.388.388,0,0,0-.269-.473.393.393,0,0,0-.473.269Z" transform="translate(-281.019 -46.614)" fill="#211715"/>
    <path id="Path_90" data-name="Path 90" d="M378.21,123.456a7.1,7.1,0,0,1,.405.765q.046.1.09.2l.04.09.021.049c.007.016.032.074.005.011l.019.046.035.086.058.151a.385.385,0,1,0,.742-.2,8.557,8.557,0,0,0-.75-1.579.385.385,0,1,0-.664.388Z" transform="translate(-305.423 -99.236)" fill="#211715"/>
    <path id="Path_91" data-name="Path 91" d="M388.451,104.692c1.158,1.642,2.8,3.262,4.884,3.5a.387.387,0,0,0,.385-.385.394.394,0,0,0-.385-.385c-1.78-.2-3.245-1.74-4.22-3.121a.4.4,0,0,0-.526-.138A.388.388,0,0,0,388.451,104.692Z" transform="translate(-313.695 -84.084)" fill="#211715"/>
    <path id="Path_92" data-name="Path 92" d="M382.2,80.948a1.2,1.2,0,0,1,1.342-.319c.01.006.115.075.074.044s.09.082.108.1a1.3,1.3,0,0,1,.2.287,2.28,2.28,0,0,1,.245.793,2.219,2.219,0,0,1-1.619,2.53.388.388,0,0,0-.269.473.394.394,0,0,0,.473.269,2.877,2.877,0,0,0,2.181-2.725c.111-.97-.333-2.373-1.417-2.592a2.031,2.031,0,0,0-1.981.75.387.387,0,0,0,.138.526.394.394,0,0,0,.526-.138Z" transform="translate(-308.109 -64.424)" fill="#211715"/>
    <path id="Path_93" data-name="Path 93" d="M356.188,78.275c-.131.333-.166,1.129.381,1.256.734.075.887-.875.693-1.351C357.1,77.791,356.527,77.574,356.188,78.275Z" transform="translate(-287.613 -62.843)" fill="#211715"/>
    <path id="Path_94" data-name="Path 94" d="M358.66,39.408a7.543,7.543,0,0,1,1.6-2.421,6.529,6.529,0,0,1,2.579-1.451,8.9,8.9,0,0,1,5.987.151,8.343,8.343,0,0,1,4.251,4.452,7.575,7.575,0,0,1,.63,3.792,8.493,8.493,0,0,1-1.169,3.4,12.908,12.908,0,0,1-2.07,2.5c-.891.9-1.863,1.946-1.709,3.306a.4.4,0,0,0,.385.385.387.387,0,0,0,.385-.385,2.177,2.177,0,0,1,.458-1.591,9.88,9.88,0,0,1,1.169-1.314,12.842,12.842,0,0,0,1.939-2.338,9.388,9.388,0,0,0,1.313-3.454,8.116,8.116,0,0,0-.42-4.075,9.308,9.308,0,0,0-4.5-5.219,9.476,9.476,0,0,0-6.122-.553,7.944,7.944,0,0,0-3.391,1.61A7.77,7.77,0,0,0,358,39.019a.4.4,0,0,0,.138.526.388.388,0,0,0,.526-.138Z" transform="translate(-289.1 -27.72)" fill="#211715"/>
    <path id="Path_95" data-name="Path 95" d="M374.445,72.391l.063.08.014.018q.054.071.106.144.1.141.2.285c.12.184.233.374.34.566.169.3.319.619.477.929a.387.387,0,0,0,.526.138.394.394,0,0,0,.138-.526c-.163-.32-.318-.644-.494-.958a8.731,8.731,0,0,0-.822-1.219.386.386,0,0,0-.544,0A.4.4,0,0,0,374.445,72.391Z" transform="translate(-302.338 -57.93)" fill="#211715"/>
    <path id="Path_96" data-name="Path 96" d="M358.518,65.8a5.98,5.98,0,0,1,2.924,1.189.4.4,0,0,0,.544,0,.388.388,0,0,0,0-.544,6.574,6.574,0,0,0-3.262-1.386.4.4,0,0,0-.473.269.387.387,0,0,0,.269.473Z" transform="translate(-289.334 -52.533)" fill="#211715"/>
    <path id="Path_97" data-name="Path 97" d="M312.821,126.821c-.455.107-.9.236-1.348.382-1.725.569-3.692,1.957-4.24,3.849q-.279.119-.557.244a9.585,9.585,0,0,0-4.073,3.071c-1.677,2.327-1.648,5.275-2.253,7.978a5.678,5.678,0,0,1-.7,2.16c-1.431-1.269-2.33-2.314-3.7-3.733a.662.662,0,0,0-.781-.127,9.7,9.7,0,0,0-3.855,4.294.191.191,0,0,0,.018.158,43.173,43.173,0,0,0,3.933,5.444c1.807,1.941,4.317,3.516,6.956,3.077.05-.008.1-.019.148-.03a3.849,3.849,0,0,0,2.111,2.754,8.744,8.744,0,0,0,3.072.94,28.36,28.36,0,0,0,4.125-.043c1-1.432,3.666-5.352,4.851-6.988,1.346-1.859,4.766-7.33,5.217-8.083.108-.88.234-1.873.254-2.672a16.369,16.369,0,0,0-.389-5.385c-.54-1.818-1.909-4.157-4.058-4.761-.235-.518-.72-2.009-1.032-2.484a.676.676,0,0,0-.7-.4A12.478,12.478,0,0,0,312.821,126.821Z" transform="translate(-235.276 -102.134)" fill="#b3b3b3"/>
    <path id="Path_98" data-name="Path 98" d="M74.509,184.161a3.608,3.608,0,0,1,.128-1.671,2.928,2.928,0,0,1,.708-1.469,2.536,2.536,0,0,1,1.23-.621,21.9,21.9,0,0,1,2.922-.258,3.468,3.468,0,0,1,2.522,1.447,1.755,1.755,0,0,1,.372,1.089s-.417.476-1.3,1.481a14.667,14.667,0,0,0-1.29,1.723.5.5,0,0,1-.654.2c-.235-.083-.492-.39-.731-.455-.441-.12-1.122-.008-1.581-.1-.609-.125-1.308-.279-1.573-.841Z" transform="translate(-60.135 -145.487)" fill="#fff"/>
    <path id="Path_99" data-name="Path 99" d="M57.034,30.748c.662-1.308,2.259-2.559,5.962-2.5,5.6.094,4.991,4.284,4.991,4.284-.063.9-.086,1.8-.125,2.635a5.127,5.127,0,0,1-1.376,3.644,4.929,4.929,0,0,1-1.537,1c.006.052.009.08.009.08a1.219,1.219,0,0,0,.167.465,1.584,1.584,0,0,0,.864.55,3.97,3.97,0,0,1-3.6,1.8,7.756,7.756,0,0,1-4.722-1.557,4.234,4.234,0,0,0,.606-.375,1.137,1.137,0,0,0,.412-.543,8.993,8.993,0,0,0,.327-1.521A7.89,7.89,0,0,1,57.9,37.5s-.283-.383-.407-.6l-.05-.122a1.744,1.744,0,0,1-.887-.143,2.385,2.385,0,0,1-.964-1,2.221,2.221,0,0,1-.223-1.624.822.822,0,0,1,.652-.512.91.91,0,0,1,.665.1,4.555,4.555,0,0,1,.349-2.853Z" transform="translate(-44.658 -22.808)" fill="#fff"/>
    <path id="Path_100" data-name="Path 100" d="M40.22,110.572l.183-.011,8.568-1.636a56.145,56.145,0,0,0-.381-8.832c-.542-3.481-2.132-5.14-5.726-6.11a3.969,3.969,0,0,1-3.606,1.808,7.742,7.742,0,0,1-4.785-1.605c-2.5,1.075-4.343,1.992-5.727,4.4a25.411,25.411,0,0,0-1.717,5.378,9.54,9.54,0,0,0-.1,4.914,6.651,6.651,0,0,0,1.379,2.609,11.273,11.273,0,0,0,6.039,2.9,8.59,8.59,0,0,1,1.555.191,3.608,3.608,0,0,1,.128-1.671,2.928,2.928,0,0,1,.708-1.469,2.536,2.536,0,0,1,1.23-.621C38.435,110.728,39.494,110.617,40.22,110.572Z" transform="translate(-21.524 -75.899)" fill="#fff"/>
    <path id="Path_101" data-name="Path 101" d="M174,18.663a34.951,34.951,0,0,1-4.607-.342c-1.879-.6-1.694-3.157-1.4-4.236a14.322,14.322,0,0,0,.036-4.64c-.037-.269-.07-.509-.087-.691a8.018,8.018,0,0,1,.167-2,5.193,5.193,0,0,1,1.323-2.577,6.142,6.142,0,0,1,4.834-2.189,5.649,5.649,0,0,1,4.46,1.757,5.264,5.264,0,0,1,1.63,3,9.854,9.854,0,0,1,.077,3.007c-.085.878-.128,1.757-.185,2.564a6.813,6.813,0,0,1-.375,1.886,10.768,10.768,0,0,1,.123,1.747A1.755,1.755,0,0,1,179.561,17s-.115,1.545-1.334,1.62C177.058,18.692,174,18.663,174,18.663Z" transform="translate(-135.532 -1.594)" fill="#a98a75"/>
    <path id="Path_102" data-name="Path 102" d="M172.532,30.583a1.07,1.07,0,0,0-.622-.112.772.772,0,0,0-.623.466,2.089,2.089,0,0,0,.173,1.53,2.238,2.238,0,0,0,.883.962,1.628,1.628,0,0,0,.886.147c-.256-.171.355.7.355.7a7.357,7.357,0,0,0,1.075,1.2,9.118,9.118,0,0,1-.312,1.6,1.123,1.123,0,0,1-.4.55,5.769,5.769,0,0,1-.724.436,7.9,7.9,0,0,0,5,1.2,3.808,3.808,0,0,0,2.817-1.329,3.108,3.108,0,0,1-1.082-.62.439.439,0,0,1-.117-.136.584.584,0,0,1-.046-.177l-.041-.277a4.46,4.46,0,0,0,1.868-1.027A4.814,4.814,0,0,0,182.99,32.3c.044-.62.079-1.282.132-1.954l-.111-.015a5.27,5.27,0,0,0-.411-2.187,3.42,3.42,0,0,0-.994-1.42,7.836,7.836,0,0,1-2.27,1.582,10.042,10.042,0,0,1-1.362.528c-.289.088-1.079.264-1.289-.1l-.143-.25a20.044,20.044,0,0,1-2.254,1.564,1.452,1.452,0,0,0-.491.62Z" transform="translate(-138.277 -21.578)" fill="#fff"/>
    <path id="Path_103" data-name="Path 103" d="M157.825,89.346c-.053.2-.1.43-.15.677a27.443,27.443,0,0,0-.421,4.753c.023,1.539.077,4.031.188,5.8l18.511-3.533c-.26-1.368-.665-3.277-.948-4.987-.314-1.891-.794-4.322-1.9-5.728a5.142,5.142,0,0,0-2.212-1.616c-.169-.073-.695-.247-.695-.247l-.343-.113A3.756,3.756,0,0,1,166.95,85.8a7.9,7.9,0,0,1-5.024-1.214c-2.146,1.437-3.276,2.288-4,4.41C157.894,89.1,157.859,89.218,157.825,89.346Z" transform="translate(-127.008 -68.12)" fill="#f8b8b4"/>
    <path id="Path_104" data-name="Path 104" d="M54.961,8.906a6.342,6.342,0,0,1,3.577-1.09,5.978,5.978,0,0,1,4.916,1.893,5.3,5.3,0,0,1,1.687,3.024,10.487,10.487,0,0,1,.106,3.6l-.032-.455A3.146,3.146,0,0,0,63.648,13.5s-.667-.188-1.348-.308l-.241.081c-.91.305-2.2.969-2.928,1.3a.236.236,0,0,1-.335-.245,1.028,1.028,0,0,0-.013-.418c-.04-.176-.186-.255-.3-.2a11.4,11.4,0,0,0-2.8,1.968.885.885,0,0,0-.258.414,9.273,9.273,0,0,0-.226.946l-1.207.07a.91.91,0,0,0-.665-.1.822.822,0,0,0-.652.512,1.044,1.044,0,0,0-.058.231,7.82,7.82,0,0,1-.641-2.557,8.572,8.572,0,0,1,.13-2.136,5.505,5.505,0,0,1,1.344-2.775,7.517,7.517,0,0,1,1.513-1.363Z" transform="translate(-41.963 -6.305)" fill="#85807f"/>
    <path id="Path_105" data-name="Path 105" d="M.482,191.118l7.757-1.483c.486-.093.28-.834-.2-.742q-3.879.74-7.757,1.483c-.486.093-.28.835.2.742Z" transform="translate(0 -152.549)" fill="#211715"/>
    <path id="Path_106" data-name="Path 106" d="M253.082,255.253c2.527-.635,5.027-1.4,7.536-2.1.416-.116.831-.236,1.249-.346a.385.385,0,0,0-.2-.742c-2.5.653-4.977,1.4-7.466,2.086-.439.122-.877.249-1.318.359a.385.385,0,0,0,.2.742Z" transform="translate(-204.018 -203.564)" fill="#211715"/>
    <path id="Path_107" data-name="Path 107" d="M144.473,141.56q-2-.56-4.008-1.112l-2.367-.654-1.087-.3-.5-.137a1.171,1.171,0,0,0-.591-.015l-8.088,1.542-9.6,1.832-10.175,1.943-9.964,1.9-1.162.223c-.486.093-.28.835.2.742l7.905-1.51,8.289-1.582,8.132-1.552,7.6-1.449,6.527-1.244.735-.14h-.2c2.717.749,5.435,1.494,8.15,2.254a.385.385,0,0,0,.2-.742Z" transform="translate(-78.067 -112.51)" fill="#211715"/>
    <path id="Path_108" data-name="Path 108" d="M115.179,187.734c1.121.568,2.249,1.121,3.376,1.677l1.94.959a2.864,2.864,0,0,0,.473.228,1.077,1.077,0,0,0,.5-.069l.978-.23q4.047-.953,8.092-1.917l4.255-1.005a.39.39,0,0,0,.282-.371.4.4,0,0,0-.282-.371q-3.235-1.344-6.474-2.682-1.72-.714-3.438-1.435-.737-.31-1.473-.623l-.673-.289a2.337,2.337,0,0,0-.737-.287,3.686,3.686,0,0,0-.665.124l-.692.135-1.3.256-2.521.5c-.485.1-.28.838.2.742q2.537-.5,5.075-1l-.3-.038c3.383,1.469,6.8,2.864,10.209,4.274l2.575,1.066v-.742c-3.569.839-7.136,1.691-10.7,2.534l-2.915.686.3.038c-1.9-.945-3.807-1.867-5.7-2.826-.441-.223-.831.44-.388.664Z" transform="translate(-92.867 -146.439)" fill="#211715"/>
    <path id="Path_109" data-name="Path 109" d="M206.841,163.79c-2.307-.942-4.672-1.741-7-2.616v.742c3.248-.646,6.491-1.314,9.737-1.969q1.182-.238,2.364-.472h-.2c1.87.61,3.748,1.2,5.625,1.787q3.072.966,6.146,1.922l1.867.578v-.742c-1.34.343-2.686.664-4.033.976-.482.111-.278.853.2.742,1.348-.311,2.693-.632,4.033-.975a.388.388,0,0,0,0-.742c-2.485-.761-4.965-1.543-7.445-2.322q-2.31-.725-4.618-1.459l-.909-.291a2.141,2.141,0,0,0-.871-.216c-1.125.183-2.242.447-3.359.673-2.914.59-5.826,1.187-8.742,1.767-.406.081-.322.621,0,.742,2.332.876,4.7,1.675,7,2.616a.387.387,0,0,0,.473-.269.394.394,0,0,0-.269-.473Z" transform="translate(-161.015 -128.19)" fill="#211715"/>
    <path id="Path_110" data-name="Path 110" d="M190.345,180.962c-1.032.405-2.069.8-3.1,1.209a.388.388,0,0,0,0,.742c2.606.775,5.193,1.614,7.789,2.428.474.148.676-.594.2-.742-2.595-.814-5.182-1.652-7.789-2.428v.742c1.029-.413,2.066-.8,3.1-1.209a.4.4,0,0,0,.269-.473.387.387,0,0,0-.473-.269Z" transform="translate(-151.011 -146.137)" fill="#211715"/>
    <path id="Path_111" data-name="Path 111" d="M177,71.295a9.194,9.194,0,0,1-.2,1.052,1.253,1.253,0,0,1-.179.494,1.163,1.163,0,0,1-.169.169c.06-.051-.032.021-.05.034a10.984,10.984,0,0,1-1.613.851.388.388,0,0,0-.138.526.393.393,0,0,0,.526.138,9.968,9.968,0,0,0,1.671-.891,1.738,1.738,0,0,0,.464-.477,2.117,2.117,0,0,0,.231-.639,10.263,10.263,0,0,0,.226-1.256.387.387,0,0,0-.385-.385.394.394,0,0,0-.385.385Z" transform="translate(-141.017 -57.264)" fill="#211715"/>
    <path id="Path_112" data-name="Path 112" d="M223.651,25.561c.015.011.045.035.014.01.02.017.04.035.06.053.046.043.089.089.13.137a2.319,2.319,0,0,1,.208.294,6.887,6.887,0,0,1,.44.827,4.774,4.774,0,0,1,.33,1.932.385.385,0,0,0,.769,0,5.482,5.482,0,0,0-.413-2.27,3.862,3.862,0,0,0-1.15-1.648.388.388,0,0,0-.526.138.393.393,0,0,0,.138.526Z" transform="translate(-180.483 -20.059)" fill="#211715"/>
    <path id="Path_113" data-name="Path 113" d="M166.134,44.331a17.073,17.073,0,0,1,.014,2.387,13.589,13.589,0,0,1-.245,1.558,4.9,4.9,0,0,0,.312,3.108,2.5,2.5,0,0,0,1.448,1.212c.471.158.673-.585.2-.742a2.213,2.213,0,0,1-1.3-2.19,23.64,23.64,0,0,1,.339-2.8,16.869,16.869,0,0,0,0-2.533C166.867,43.841,166.1,43.837,166.134,44.331Z" transform="translate(-133.903 -35.499)" fill="#211715"/>
    <path id="Path_114" data-name="Path 114" d="M182.1,63.143a7.054,7.054,0,0,1-1.135-1.119l-.052-.065c-.005-.007-.073-.093-.021-.027l-.109-.145c-.031-.042-.06-.084-.089-.126a5.346,5.346,0,0,1-.309-.49.388.388,0,0,0-.526-.138.393.393,0,0,0-.138.526,6.555,6.555,0,0,0,.68.982,7.07,7.07,0,0,0,1.155,1.145.4.4,0,0,0,.544,0,.389.389,0,0,0,0-.544Z" transform="translate(-145.112 -49.246)" fill="#211715"/>
    <path id="Path_115" data-name="Path 115" d="M200.644,11.749a5.5,5.5,0,0,1,1.224,3.063,22.543,22.543,0,0,1-.142,3.737,8.321,8.321,0,0,1-.587,3.251,3.791,3.791,0,0,1-2.293,1.872,5.382,5.382,0,0,1-3.571-.378.387.387,0,0,0-.473.269.394.394,0,0,0,.269.473,6.255,6.255,0,0,0,3.632.465,4.675,4.675,0,0,0,2.811-1.827,6.567,6.567,0,0,0,.938-3.445c.046-.708.08-1.419.155-2.125a11.378,11.378,0,0,0,.057-1.971,6.537,6.537,0,0,0-1.476-3.926c-.327-.373-.87.173-.544.544Z" transform="translate(-157.325 -8.943)" fill="#211715"/>
    <path id="Path_116" data-name="Path 116" d="M177.4,1.33a5.535,5.535,0,0,0-3.207-1.3A7.57,7.57,0,0,0,171.1.267a6.881,6.881,0,0,0-3.176,2.2,6.04,6.04,0,0,0-.976,1.593,7.043,7.043,0,0,0-.409,1.734,7.15,7.15,0,0,0,.011,1.875,10.815,10.815,0,0,1,.164,2.013c-.027.495.743.493.769,0,.058-1.076-.288-2.126-.236-3.2a5.834,5.834,0,0,1,.873-3.006,6.365,6.365,0,0,1,2.762-2.31,6.05,6.05,0,0,1,2.633-.415,5.185,5.185,0,0,1,3.343,1.125c.372.324.918-.218.544-.544Z" transform="translate(-134.459 0.037)" fill="#211715"/>
    <path id="Path_117" data-name="Path 117" d="M171.083,44.307a1.311,1.311,0,0,0-1.512.138,1.379,1.379,0,0,0-.391,1.114,2.721,2.721,0,0,0,1.357,2.275,1.761,1.761,0,0,0,1.536.038.385.385,0,1,0-.388-.664.676.676,0,0,1-.213.052c-.058,0-.114,0-.171,0l-.084-.008c.034,0,.028,0-.019-.005a2.812,2.812,0,0,1-.276-.077c-.074-.025.052.037-.008,0s-.1-.058-.15-.089a1.766,1.766,0,0,1-.417-.416c-.048-.07-.093-.142-.135-.216-.022-.038-.043-.075-.063-.114-.007-.013-.063-.131-.046-.089a2.111,2.111,0,0,1-.148-.592,1.727,1.727,0,0,1,0-.35c-.007.055.018-.081.022-.1s.014-.049.023-.073l-.01.022c.015-.026.028-.053.043-.08s.063-.065,0-.008c.011-.011.1-.1.038-.046a.642.642,0,0,1,.127-.076c-.029.011-.021.009.026-.008q.045-.014.091-.025c.055-.01.066-.013.032-.009.03,0,.059,0,.089,0a.423.423,0,0,1,.254.076c.423.259.811-.406.388-.664Z" transform="translate(-136.634 -35.635)" fill="#211715"/>
    <path id="Path_118" data-name="Path 118" d="M55.339,145.753a28.2,28.2,0,0,0-.6,3.077,2.651,2.651,0,0,0,.021,1.239,1.92,1.92,0,0,0,.589.848,6.511,6.511,0,0,0,1.98,1.031,14.389,14.389,0,0,0,2.058.519c.483.1.69-.642.2-.742a10.057,10.057,0,0,1-3.465-1.186,1.557,1.557,0,0,1-.583-.58,1.608,1.608,0,0,1-.058-.96c.072-.473.159-.944.248-1.414.1-.545.2-1.093.346-1.629a.385.385,0,0,0-.742-.2Z" transform="translate(-44.16 -117.492)" fill="#211715"/>
    <path id="Path_119" data-name="Path 119" d="M32.514,93.461a13.356,13.356,0,0,0-4.292,2.6,8.45,8.45,0,0,0-1.559,2.14,13.962,13.962,0,0,0-.921,2.539c-.247.88-.454,1.77-.686,2.654a10.984,10.984,0,0,0-.381,3.322,7.108,7.108,0,0,0,2.473,5.249,12.022,12.022,0,0,0,5.492,2.321.4.4,0,0,0,.473-.269.388.388,0,0,0-.269-.473,11.989,11.989,0,0,1-4.705-1.8,6.161,6.161,0,0,1-2.647-4.453,15.357,15.357,0,0,1,.832-5.753,18.61,18.61,0,0,1,.8-2.506,7.641,7.641,0,0,1,1.3-2.062A12.074,12.074,0,0,1,32.9,94.125a.387.387,0,0,0,.138-.526.4.4,0,0,0-.526-.138Z" transform="translate(-19.922 -75.437)" fill="#211715"/>
    <path id="Path_120" data-name="Path 120" d="M114.989,94.452a7.422,7.422,0,0,1,2.247,1.208,5.376,5.376,0,0,1,1.42,1.836,9.206,9.206,0,0,1,.725,2.634,33.948,33.948,0,0,1,.315,3.864c.05,1.509.038,3.02.026,4.529a.385.385,0,0,0,.769,0,57.648,57.648,0,0,0-.332-8.335,7.775,7.775,0,0,0-2.234-4.946,8.255,8.255,0,0,0-2.733-1.531C114.727,93.542,114.526,94.285,114.989,94.452Z" transform="translate(-92.66 -75.659)" fill="#211715"/>
    <path id="Path_121" data-name="Path 121" d="M119.592,124.113a82.044,82.044,0,0,0-.284,8.4.385.385,0,0,0,.769,0,82.044,82.044,0,0,1,.284-8.4C120.4,123.619,119.634,123.622,119.592,124.113Z" transform="translate(-96.351 -99.936)" fill="#211715"/>
    <path id="Path_122" data-name="Path 122" d="M65.169,92.421a8.017,8.017,0,0,0,3.986,1.686,5.657,5.657,0,0,0,3.7-.574,4.63,4.63,0,0,0,1.427-1.454c.271-.416-.4-.8-.664-.388A3.688,3.688,0,0,1,72.234,93a4.345,4.345,0,0,1-1.958.412,7.251,7.251,0,0,1-4.564-1.536.4.4,0,0,0-.544,0,.388.388,0,0,0,0,.544Z" transform="translate(-52.544 -73.905)" fill="#211715"/>
    <path id="Path_123" data-name="Path 123" d="M65.427,84.085a2.62,2.62,0,0,0,1.259-1,3.814,3.814,0,0,0,.266-.876c.061-.267.107-.537.144-.808a.4.4,0,0,0-.269-.473.389.389,0,0,0-.473.269c-.034.247-.074.492-.128.735q-.042.192-.093.382-.028.106-.058.212c-.011.038-.021.076-.033.113,0,.013-.035.1-.005.027a.875.875,0,0,1-.354.393,4.756,4.756,0,0,1-.644.368.387.387,0,0,0-.138.526.4.4,0,0,0,.526.138Z" transform="translate(-52.375 -65.341)" fill="#211715"/>
    <path id="Path_124" data-name="Path 124" d="M103.528,87.155a1.56,1.56,0,0,0,.066.323,2.1,2.1,0,0,0,.106.252,1.243,1.243,0,0,0,.275.349,2.337,2.337,0,0,0,.866.463.388.388,0,0,0,.473-.269.394.394,0,0,0-.269-.473c-.092-.031-.183-.063-.272-.1l.092.038a1.618,1.618,0,0,1-.34-.192l.078.06a1.346,1.346,0,0,1-.231-.229l.06.078a.858.858,0,0,1-.1-.185l.038.092a1.192,1.192,0,0,1-.084-.29l.014.1,0-.018a.423.423,0,0,0-.113-.272.385.385,0,0,0-.544,0,.369.369,0,0,0-.113.272Z" transform="translate(-83.614 -70.074)" fill="#211715"/>
    <path id="Path_125" data-name="Path 125" d="M67.187,73.328l-.1-.072c.046.036-.047-.038-.046-.037q-.082-.066-.163-.135-.162-.138-.316-.285a7.731,7.731,0,0,1-.554-.593c-.082-.1-.163-.2-.24-.3h0l-.058-.079a5.688,5.688,0,0,1-.333-.5.385.385,0,1,0-.662.389,6.984,6.984,0,0,0,.749,1.033,7.927,7.927,0,0,0,1.33,1.242.386.386,0,0,0,.526-.138.4.4,0,0,0-.138-.526Z" transform="translate(-52.218 -57.431)" fill="#211715"/>
    <path id="Path_126" data-name="Path 126" d="M111.872,18.158a5.472,5.472,0,0,1,1.254,2.717,9.548,9.548,0,0,1,.058,3.169.4.4,0,0,0,.269.473.388.388,0,0,0,.473-.269c.333-2.233.087-4.9-1.51-6.635-.336-.365-.879.18-.544.544Z" transform="translate(-90.27 -14.121)" fill="#211715"/>
    <path id="Path_127" data-name="Path 127" d="M51.353,15.9a5.028,5.028,0,0,1-.476-1.586,7.287,7.287,0,0,1-.135-1.448,6.228,6.228,0,0,1,.868-3.27,6.881,6.881,0,0,1,2.861-2.513,6.24,6.24,0,0,1,2.76-.522A5.884,5.884,0,0,1,61,7.767c.378.315.925-.227.544-.544a6.313,6.313,0,0,0-3.642-1.4,7.622,7.622,0,0,0-3.306.381,7.516,7.516,0,0,0-3.327,2.549A6.625,6.625,0,0,0,50,12.32a8.11,8.11,0,0,0,.089,1.94,5.994,5.994,0,0,0,.6,2.027.385.385,0,0,0,.664-.388Z" transform="translate(-40.368 -4.662)" fill="#211715"/>
    <path id="Path_128" data-name="Path 128" d="M81.453,56.412a6.052,6.052,0,0,0,5.02-.025,4.867,4.867,0,0,0,1.835-1.646,5.809,5.809,0,0,0,.781-2.42c.137-1.106.109-2.233.185-3.344.034-.494-.736-.492-.769,0-.063.931-.075,1.864-.135,2.795a5.805,5.805,0,0,1-.518,2.21,4.154,4.154,0,0,1-3.525,2.2,6.648,6.648,0,0,1-2.669-.512.388.388,0,0,0-.473.269.394.394,0,0,0,.269.473Z" transform="translate(-65.56 -39.251)" fill="#211715"/>
    <path id="Path_129" data-name="Path 129" d="M55.239,53.62a1.373,1.373,0,0,0-1.577.169,1.428,1.428,0,0,0-.389,1.157,2.879,2.879,0,0,0,1.47,2.383,1.851,1.851,0,0,0,1.623.018c.436-.235.048-.9-.388-.664a.747.747,0,0,1-.237.069,1.37,1.37,0,0,1-.182,0l-.089-.006-.027,0a1.915,1.915,0,0,1-.3-.074l-.058-.022c.049.021.057.023.021.007a1.181,1.181,0,0,0-.141-.081,2.067,2.067,0,0,1-.758-.923,2.415,2.415,0,0,1-.162-.612,1.845,1.845,0,0,1,0-.361.379.379,0,0,1,.019-.1c0-.014.051-.16.023-.085s.013-.023.019-.037.08-.108.019-.038a.835.835,0,0,1,.093-.092c-.052.043.068-.038.083-.046a.577.577,0,0,1,.549.009.385.385,0,0,0,.388-.664Z" transform="translate(-43.018 -43.159)" fill="#211715"/>
    <path id="Path_130" data-name="Path 130" d="M113.1,38.13a3.47,3.47,0,0,0-.648-1.707,2.784,2.784,0,0,0-1.2-1.039.386.386,0,0,0-.473.269.4.4,0,0,0,.269.473c.074.029-.082-.043-.008,0l.054.028c.038.02.074.043.11.066l.056.038c.015.01.083.071.013.008.038.033.077.064.114.1a3,3,0,0,1,.237.242c.038.043.074.087.11.131s-.027-.037.015.019l.062.087a3.505,3.505,0,0,1,.192.308q.05.088.094.18l.04.084s.038.093.025.056.019.049.022.058q.019.052.037.1c.019.058.037.117.053.176s.029.118.04.178c0,.006.02.123.009.04,0,.035.008.071.011.107a.385.385,0,1,0,.769,0Z" transform="translate(-89.459 -28.56)" fill="#211715"/>
    <path id="Path_131" data-name="Path 131" d="M73.326,182.439a3.068,3.068,0,0,1,.1-1.336A4.009,4.009,0,0,1,73.8,180a2.151,2.151,0,0,1,1.679-.907c.6-.08,1.214-.137,1.822-.173a3.2,3.2,0,0,1,1.6.244c.7.323,1.569,1.045,1.543,1.892-.015.5.754.495.769,0a2.917,2.917,0,0,0-1.477-2.306,3.685,3.685,0,0,0-2.149-.614c-.7.026-1.395.1-2.086.185a3.111,3.111,0,0,0-2.187,1.028,3.718,3.718,0,0,0-.609,1.416,4.162,4.162,0,0,0-.129,1.875c.1.485.841.279.742-.2Z" transform="translate(-58.581 -143.868)" fill="#211715"/>
    <path id="Path_132" data-name="Path 132" d="M99.4,187.9a4.034,4.034,0,0,1,.683.171c.045.016.09.033.135.051s.056.025.008,0l.069.031c.086.04.171.084.253.133s.141.087.208.136c.01.007.072.041.019.014s0,0,.017.015q.044.036.086.075a2.23,2.23,0,0,1,.188.2l.043.053c.069.085-.023-.033.014.017s.07.1.1.144a.385.385,0,0,0,.664-.388,2.984,2.984,0,0,0-.93-.917,3.831,3.831,0,0,0-1.355-.479.394.394,0,0,0-.473.269.389.389,0,0,0,.269.473Z" transform="translate(-80.054 -151.146)" fill="#211715"/>
    <path id="Path_133" data-name="Path 133" d="M99.209,195.344l.083.008-.1-.014a1.751,1.751,0,0,1,.344.095c.041.015-.1-.042-.029-.013l.036.016.089.044q.09.047.175.1l.076.052a.445.445,0,0,1,.041.03c-.018-.016-.07-.055-.022-.016s.1.083.143.128q.035.035.068.072c.008.009.052.074.063.075,0,0-.056-.077-.025-.032.009.013.019.026.027.038q.029.043.054.087a.385.385,0,1,0,.664-.388,2.175,2.175,0,0,0-.737-.733,2.072,2.072,0,0,0-.95-.324.387.387,0,0,0-.385.385.394.394,0,0,0,.385.385Z" transform="translate(-79.816 -157.143)" fill="#211715"/>
    <path id="Path_134" data-name="Path 134" d="M96.9,202a1.1,1.1,0,0,1,.248.073l-.092-.038a1.326,1.326,0,0,1,.277.162l-.077-.06a1.233,1.233,0,0,1,.219.218l-.06-.078a1.137,1.137,0,0,1,.133.225.385.385,0,0,0,.231.177.394.394,0,0,0,.3-.038.388.388,0,0,0,.177-.23l.014-.1a.382.382,0,0,0-.053-.194,1.527,1.527,0,0,0-.529-.61,1.662,1.662,0,0,0-.33-.173,1.108,1.108,0,0,0-.248-.073.419.419,0,0,0-.3.038.385.385,0,0,0-.138.526.373.373,0,0,0,.23.177Z" transform="translate(-78.036 -162.535)" fill="#211715"/>
    <path id="Path_135" data-name="Path 135" d="M76.7,202.3c.442.87,1.676,1.075,2.555,1.074a4.517,4.517,0,0,1,.709.019,1.419,1.419,0,0,1,.554.327.944.944,0,0,0,1.387-.222c.224-.44-.439-.83-.664-.388-.019.038-.044.046-.009.032a.121.121,0,0,1-.073.017.437.437,0,0,1-.2-.067c-.156-.1-.287-.231-.448-.32a2.587,2.587,0,0,0-1.255-.169,3.883,3.883,0,0,1-1.106-.159,1.153,1.153,0,0,1-.785-.534c-.224-.442-.888-.052-.664.388Z" transform="translate(-61.912 -162.908)" fill="#211715"/>
    <path id="Path_136" data-name="Path 136" d="M73.97,34.155a17.771,17.771,0,0,0-1.8.759c-.276.13-.552.262-.827.393-.075.035-.274.086-.323.151L71,35.469q.13-.038.154.081l.035.069.014-.1a1.2,1.2,0,0,0,0-.238.707.707,0,0,0-.566-.716,1.792,1.792,0,0,0-.951.37,12.5,12.5,0,0,0-1.774,1.291,2.476,2.476,0,0,0-.8.879,5.712,5.712,0,0,0-.275,1.078c-.092.484.65.691.742.2.038-.2.082-.407.133-.609a1.384,1.384,0,0,1,.173-.5,3.066,3.066,0,0,1,.442-.4q.255-.219.517-.429a10.587,10.587,0,0,1,1.089-.767,6.146,6.146,0,0,1,.55-.3l.135-.063a.217.217,0,0,1-.194-.056,1.465,1.465,0,0,0,.013.2.673.673,0,0,0,.135.547.63.63,0,0,0,.515.214,3.116,3.116,0,0,0,.981-.413,19.918,19.918,0,0,1,2.107-.915c.466-.159.266-.9-.2-.742Z" transform="translate(-53.976 -27.56)" fill="#211715"/>
    <path id="Path_137" data-name="Path 137" d="M186.418,29.566a9.68,9.68,0,0,1-1.881,1.6c-.364.247-.737.481-1.109.716a1.778,1.778,0,0,0-.685.793.4.4,0,0,0,.138.526.388.388,0,0,0,.526-.138,1.24,1.24,0,0,1,.255-.393c.028-.028.058-.053.086-.08s.022-.014-.007,0l.242-.153c.37-.233.738-.469,1.1-.718a10.12,10.12,0,0,0,1.881-1.614.394.394,0,0,0,0-.544.388.388,0,0,0-.544,0Z" transform="translate(-147.555 -23.782)" fill="#211715"/>
    <path id="Path_138" data-name="Path 138" d="M202.647,24.952a7.809,7.809,0,0,1-2.419,1.613,6.949,6.949,0,0,1-1.217.427,1.891,1.891,0,0,1-.431.054.67.67,0,0,1-.161-.014c-.033-.008-.083-.043-.068-.021-.272-.412-.938-.027-.664.388.529.8,1.816.28,2.5.009a8.736,8.736,0,0,0,3-1.914.385.385,0,0,0-.544-.544Z" transform="translate(-159.612 -20.053)" fill="#211715"/>
    <path id="Path_139" data-name="Path 139" d="M176.792,126.869c0,.992.016,1.985.042,2.977a31.654,31.654,0,0,0,.2,3.387.387.387,0,0,0,.473.269.4.4,0,0,0,.269-.473c.012.089-.007-.064-.009-.079-.006-.054-.012-.108-.017-.162q-.018-.181-.031-.362c-.02-.264-.036-.528-.049-.792-.032-.615-.052-1.232-.068-1.848-.025-.972-.042-1.944-.04-2.916a.385.385,0,0,0-.769,0Z" transform="translate(-142.788 -102.16)" fill="#211715"/>
    <path id="Path_140" data-name="Path 140" d="M232.892,110.874a27.577,27.577,0,0,1,.228,3.943,12.509,12.509,0,0,1-.334,2.107,6.8,6.8,0,0,0-.207,1.012,6.075,6.075,0,0,0,.022.956c.033.491.8.5.769,0a6.349,6.349,0,0,1-.025-.919,7,7,0,0,1,.223-1.016,13.776,13.776,0,0,0,.32-2.139,27.583,27.583,0,0,0-.228-3.943C233.624,110.384,232.855,110.38,232.892,110.874Z" transform="translate(-187.837 -89.243)" fill="#211715"/>
    <path id="Path_141" data-name="Path 141" d="M227.283,67a5.234,5.234,0,0,1,.056,1.188c.008-.08,0,.025-.007.042q-.012.072-.03.142a2.27,2.27,0,0,1-.077.242c.026-.07-.017.034-.019.04-.021.043-.044.085-.07.126s-.038.06-.06.089c.042-.059-.045.05-.055.06a.385.385,0,1,0,.544.544,2.079,2.079,0,0,0,.519-1.111A4.933,4.933,0,0,0,228.053,67a.4.4,0,0,0-.385-.385C227.481,66.621,227.256,66.784,227.283,67Z" transform="translate(-183.267 -53.794)" fill="#211715"/>
    <path id="Path_142" data-name="Path 142" d="M207.415,63.906l-.068.035c-.046.024.027-.012.037-.015-.016,0-.033.013-.049.018a1.509,1.509,0,0,1-.168.048l-.1.02-.046.007c.015,0,.087-.01.033-.005s-.131.011-.2.011a1.728,1.728,0,0,1-.181-.008c-.087-.009.079.014-.005,0-.031-.006-.061-.012-.091-.02s-.054-.015-.08-.025-.031-.014-.046-.018c.021.006.066.029.02.008-.1-.045-.192-.087-.29-.128a.384.384,0,0,0-.434.565.456.456,0,0,0,.23.177c-.041-.017-.051-.022,0,0l.05.023.109.049a1.654,1.654,0,0,0,.262.1,1.92,1.92,0,0,0,.486.052,1.968,1.968,0,0,0,.923-.226.385.385,0,0,0-.388-.664Z" transform="translate(-166.132 -51.538)" fill="#211715"/>
    <path id="Path_143" data-name="Path 143" d="M198.381,46.577c-.065.277.03.9.548.917.679-.049.666-.806.413-1.146A.539.539,0,0,0,198.381,46.577Z" transform="translate(-160.21 -37.254)" fill="#211715"/>
    <path id="Path_144" data-name="Path 144" d="M219.609,44.564c-.06.274.03.889.508.909.627-.047.612-.8.379-1.135C220.3,44.064,219.789,43.979,219.609,44.564Z" transform="translate(-177.357 -35.632)" fill="#211715"/>
    <path id="Path_145" data-name="Path 145" d="M211.743,53.055q.075.115.146.234a2.614,2.614,0,0,1,.145.261L212,53.459a.289.289,0,0,1,.019.064l-.014-.1a.167.167,0,0,1,0,.031l.014-.1a.081.081,0,0,1,0,.019l.038-.092a.076.076,0,0,1-.009.018l.06-.077a.332.332,0,0,1-.055.053l.078-.06a.292.292,0,0,1-.054.032l.092-.038a.341.341,0,0,1-.081.02l.1-.014c-.05.007-.1.011-.151.021a.385.385,0,0,0-.092.7l.092.038a.388.388,0,0,0,.2,0l.02,0-.1.014a.98.98,0,0,0,.2-.034.676.676,0,0,0,.27-.168.481.481,0,0,0,.126-.212.518.518,0,0,0,0-.25.779.779,0,0,0-.089-.217c-.079-.149-.168-.293-.26-.435a.406.406,0,0,0-.23-.177.393.393,0,0,0-.3.038.385.385,0,0,0-.138.526Z" transform="translate(-170.974 -42.376)" fill="#211715"/>
    <path id="Path_146" data-name="Path 146" d="M93.843,73.668a.805.805,0,0,1-.072.038.221.221,0,0,0-.038.019c.059-.047.059-.024.021-.009a1.633,1.633,0,0,1-.177.056c-.067.017-.136.025-.2.04.018,0,.082-.009.028,0l-.049,0c-.037,0-.074.005-.111.006a1.794,1.794,0,0,1-.192,0l-.047,0c-.05,0,.083.014.034,0-.033-.006-.065-.011-.1-.019s-.058-.015-.086-.024-.075-.041-.1-.038l.04.017-.04-.017L92.7,73.71c-.062-.026-.123-.053-.186-.077a.386.386,0,0,0-.473.269.4.4,0,0,0,.269.473c.011,0,.087.036.035.013l.021.009.184.078a1.273,1.273,0,0,0,.208.068,2.022,2.022,0,0,0,.512.045,2.075,2.075,0,0,0,.966-.255.385.385,0,1,0-.388-.664Z" transform="translate(-74.327 -59.45)" fill="#211715"/>
    <path id="Path_147" data-name="Path 147" d="M84.159,55.272c-.07.3.032.956.584.976.724-.052.709-.859.44-1.221A.575.575,0,0,0,84.159,55.272Z" transform="translate(-67.956 -44.253)" fill="#211715"/>
    <path id="Path_148" data-name="Path 148" d="M106.764,53.184c-.063.286.032.928.537.948.664-.049.648-.832.4-1.183A.518.518,0,0,0,106.764,53.184Z" transform="translate(-86.215 -42.579)" fill="#211715"/>
    <path id="Path_149" data-name="Path 149" d="M98.487,61.978c.056.083.111.166.164.25a2.253,2.253,0,0,1,.163.281l-.038-.092a.279.279,0,0,1,.017.058l-.014-.1a.186.186,0,0,1,0,.033l.014-.1a.119.119,0,0,1-.009.03l.038-.092a.09.09,0,0,1-.012.019l.06-.078a.461.461,0,0,1-.05.049l.078-.06a.3.3,0,0,1-.066.038l.092-.038a.785.785,0,0,1-.128.028.385.385,0,0,0-.092.7.421.421,0,0,0,.3.038,1.016,1.016,0,0,0,.11-.022.7.7,0,0,0,.273-.161.489.489,0,0,0,.163-.385.753.753,0,0,0-.1-.319c-.089-.159-.189-.313-.291-.463a.41.41,0,0,0-.23-.177.393.393,0,0,0-.3.038.389.389,0,0,0-.177.231.384.384,0,0,0,.038.3Z" transform="translate(-79.501 -49.584)" fill="#211715"/>
    <path id="Path_150" data-name="Path 150" d="M180.814,83.711a8.347,8.347,0,0,0,4.449,1.168,4.59,4.59,0,0,0,3.7-1.524.4.4,0,0,0,0-.544.387.387,0,0,0-.544,0,3.9,3.9,0,0,1-3.221,1.3,7.567,7.567,0,0,1-3.992-1.065.385.385,0,0,0-.388.664Z" transform="translate(-145.888 -66.786)" fill="#211715"/>
    <path id="Path_151" data-name="Path 151" d="M156.25,100.5c-.08-1.282-.119-2.567-.15-3.851-.027-1.1-.065-2.208,0-3.311a24.294,24.294,0,0,1,.39-3.374,6.631,6.631,0,0,1,1.111-2.662,10.475,10.475,0,0,1,2.728-2.313c.408-.275.024-.942-.388-.664a12.814,12.814,0,0,0-2.672,2.169,6.818,6.818,0,0,0-1.412,2.776,25.985,25.985,0,0,0-.535,6.775c.032,1.486.072,2.972.164,4.456C155.512,101,156.281,101,156.25,100.5Z" transform="translate(-125.431 -68.049)" fill="#211715"/>
    <path id="Path_152" data-name="Path 152" d="M222.911,83.667a6.377,6.377,0,0,1,1.945.96,5.136,5.136,0,0,1,1.525,2.121,28.321,28.321,0,0,1,1.334,5.745c.218,1.163.46,2.322.681,3.484.092.486.834.28.742-.2-.2-1.061-.421-2.119-.624-3.181s-.358-2.107-.568-3.154c-.374-1.864-.914-3.965-2.421-5.251a7.037,7.037,0,0,0-2.409-1.26c-.471-.156-.673.586-.2.742Z" transform="translate(-179.822 -66.952)" fill="#211715"/>
    <path id="Path_153" data-name="Path 153" d="M213.847,78.607a.764.764,0,0,0,.235.459,3.8,3.8,0,0,0,.375.3,3.513,3.513,0,0,0,.753.393.385.385,0,0,0,.435-.565.443.443,0,0,0-.231-.177l-.087-.035.092.038a3.193,3.193,0,0,1-.692-.406l.078.06a1.354,1.354,0,0,1-.24-.214l.06.078a.427.427,0,0,1-.037-.063l.038.092a.719.719,0,0,1-.038-.161.385.385,0,0,0-.7-.093l-.038.092a.385.385,0,0,0,0,.2Z" transform="translate(-172.704 -63.086)" fill="#211715"/>
    <path id="Path_154" data-name="Path 154" d="M13.789,139.854a3.381,3.381,0,0,0-1.909,1.5,3.523,3.523,0,0,0-.372,2.357q.36,2.4.707,4.8.154,1.051.309,2.1a.387.387,0,0,0,.473.269.4.4,0,0,0,.269-.473q-.293-1.968-.578-3.937-.168-1.146-.338-2.291a4.152,4.152,0,0,1,0-2.009,2.538,2.538,0,0,1,1.647-1.57c.469-.152.269-.895-.2-.742Z" transform="translate(-9.244 -112.932)" fill="#211715"/>
    <path id="Path_155" data-name="Path 155" d="M426.1,140.227a5.917,5.917,0,0,1,3.457,3.565,14.121,14.121,0,0,1,.712,6.072c-.03,1.175-.208,2.337-.34,3.5a.387.387,0,0,0,.385.385.394.394,0,0,0,.385-.385,33.5,33.5,0,0,0,.321-6.768,9.625,9.625,0,0,0-2.121-5.352,5.4,5.4,0,0,0-2.593-1.762.385.385,0,0,0-.2.742Z" transform="translate(-343.929 -112.636)" fill="#211715"/>
    <path id="Path_156" data-name="Path 156" d="M383.978,127.475c-.107-.238-.235-.6-.346-.893-.144-.383-.288-.766-.455-1.14a1.989,1.989,0,0,0-.609-.872,2.59,2.59,0,0,0-1.558-.142,11.23,11.23,0,0,0-5.8,1.872,6.152,6.152,0,0,0-2.025,2.35.4.4,0,0,0,.138.526.388.388,0,0,0,.526-.138,6.289,6.289,0,0,1,3.63-3.085,13.4,13.4,0,0,1,2.945-.7,7.68,7.68,0,0,1,1.563-.08c.279.026.4.38.5.608.308.68.518,1.4.823,2.083a.387.387,0,0,0,.526.138.394.394,0,0,0,.138-.526Z" transform="translate(-301.369 -100.449)" fill="#211715"/>
    <path id="Path_157" data-name="Path 157" d="M349.685,138.8a19.4,19.4,0,0,0-5.092.752,23.792,23.792,0,0,0-4.665,1.846,9.208,9.208,0,0,0-3.358,2.9,11.126,11.126,0,0,0-1.562,4.356c-.154.859-.269,1.724-.422,2.583-.075.422-.17.84-.252,1.261a6.005,6.005,0,0,1-.371,1.366.4.4,0,0,0,.138.526.388.388,0,0,0,.526-.138,10.267,10.267,0,0,0,.606-2.308c.146-.738.255-1.483.373-2.226a13.924,13.924,0,0,1,1.182-4.281,7.809,7.809,0,0,1,3-3.082,20.729,20.729,0,0,1,4.385-1.878,18.953,18.953,0,0,1,5.511-.91A.385.385,0,0,0,349.685,138.8Z" transform="translate(-269.69 -112.096)" fill="#211715"/>
    <path id="Path_158" data-name="Path 158" d="M298.648,202.1c-1.138-.988-2.173-2.074-3.208-3.169-.484-.513-1.045-1.361-1.865-1.069a5.442,5.442,0,0,0-1.649,1.133,10.637,10.637,0,0,0-2.25,2.8,3.855,3.855,0,0,0-.26.567c-.119.348.052.588.231.873q.567.9,1.175,1.779c1.524,2.21,3.165,4.466,5.584,5.764a6.866,6.866,0,0,0,4.156.856,5.311,5.311,0,0,0,3.5-2.222,12.539,12.539,0,0,0,1.542-3.9,34.274,34.274,0,0,0,1.017-4.862q.078-.6.128-1.2c.041-.494-.728-.491-.769,0a29.311,29.311,0,0,1-.759,4.487A25.576,25.576,0,0,1,304,207.94a4.647,4.647,0,0,1-6.217,2.62c-2.361-.844-4.038-2.8-5.47-4.767q-.594-.814-1.157-1.65-.268-.4-.528-.8-.13-.2-.259-.4l-.115-.183c-.021-.033-.122-.2-.115-.154s.018-.035.03-.067c.024-.064-.012.023.018-.043.037-.084.078-.166.121-.247.1-.2.218-.389.339-.577a10.607,10.607,0,0,1,1-1.3,9.2,9.2,0,0,1,1.323-1.243,6.151,6.151,0,0,1,.75-.485c.316-.172.474.092.682.31.944.989,1.864,2,2.864,2.936q.413.386.841.756c.372.323.919-.219.544-.544Z" transform="translate(-233.717 -159.748)" fill="#211715"/>
    <path id="Path_159" data-name="Path 159" d="M269.057,174.578a2.35,2.35,0,0,0-.59-.683c-.284-.263-.587-.5-.869-.767-.172-.16-.583-.432-.494-.705.094-.29.417-.216.636-.133,1.4.528,2.683,1.327,4.056,1.914a1.958,1.958,0,0,1,.879.615,1.789,1.789,0,0,1,.378,1.126.385.385,0,0,0,.769,0,2.582,2.582,0,0,0-1.254-2.236c-.33-.185-.706-.308-1.049-.471-.41-.194-.816-.4-1.223-.6-.421-.209-.843-.418-1.269-.617a8.87,8.87,0,0,0-1.2-.514,1.192,1.192,0,0,0-1.192.237,1.066,1.066,0,0,0-.166,1.3,5.216,5.216,0,0,0,.969.966c.22.187.438.376.644.579a1.3,1.3,0,0,1,.308.373.387.387,0,0,0,.526.138.394.394,0,0,0,.138-.526Z" transform="translate(-215.099 -138.459)" fill="#211715"/>
    <path id="Path_160" data-name="Path 160" d="M245.381,188.5q-2.072.212-4.147.393c-.738.066-1.478.135-2.209.258-.617.1-1.2.294-1.4.957a1.048,1.048,0,0,0,.935,1.373.4.4,0,0,0,.473-.269.387.387,0,0,0-.269-.473.827.827,0,0,1-.329-.088.223.223,0,0,1-.07-.061s-.011-.03-.013-.034a.446.446,0,0,1,.06-.344.723.723,0,0,1,.523-.263c.242-.049.486-.088.731-.12,1.182-.158,2.376-.234,3.562-.346q1.078-.1,2.155-.213a.4.4,0,0,0,.385-.385.387.387,0,0,0-.385-.385Z" transform="translate(-191.876 -152.239)" fill="#211715"/>
    <path id="Path_161" data-name="Path 161" d="M244.835,198.213c-.865.024-1.728.067-2.589.147-.409.038-.819.081-1.227.133a1.661,1.661,0,0,0-1.054.454,1.011,1.011,0,0,0,.425,1.617,2.264,2.264,0,0,0,1.1.095c.362-.033.724-.063,1.086-.092.789-.062,1.577-.121,2.366-.162.493-.025.5-.795,0-.769-1.2.062-2.4.158-3.6.268a1.146,1.146,0,0,1-.754-.1.22.22,0,0,1-.059-.334c.161-.2.506-.212.735-.239.353-.041.707-.079,1.061-.111.837-.077,1.675-.117,2.515-.14a.385.385,0,0,0,0-.769Z" transform="translate(-193.603 -160.082)" fill="#211715"/>
    <path id="Path_162" data-name="Path 162" d="M246.821,206.9a.994.994,0,0,0-.662,1.181,1.027,1.027,0,0,0,.97.677c.6.033,1.216.009,1.82,0,.329-.005.658-.011.986-.022.494-.017.5-.787,0-.769-.679.024-1.359.031-2.039.032-.262,0-.523-.006-.785-.011a.431.431,0,0,1-.044,0c.115.011-.059-.018-.053-.015a.2.2,0,0,1-.115-.1.083.083,0,0,1,0-.085.358.358,0,0,1,.124-.137.4.4,0,0,0,.269-.473.387.387,0,0,0-.473-.269Z" transform="translate(-198.779 -167.091)" fill="#211715"/>
    <path id="Path_163" data-name="Path 163" d="M256.942,215.344c1,.012,2,.043,3,.057.376.005.752.014,1.128.039a3.306,3.306,0,0,1,.971.16.387.387,0,0,0,.473-.269.393.393,0,0,0-.269-.473,3.747,3.747,0,0,0-1.055-.179c-.4-.031-.8-.042-1.2-.047-1.018-.015-2.035-.045-3.052-.058a.385.385,0,0,0,0,.769Z" transform="translate(-207.222 -173.296)" fill="#211715"/>
    <path id="Path_164" data-name="Path 164" d="M412.236,211.7c0-2.837.076-3.546.1-8.412a1.923,1.923,0,0,0-2.46-1.86c-3.165.92-7.747,2.257-10.894,3.165a2.486,2.486,0,0,0-1.8,2.378c-.021,4.781-.074,6.709-.074,11.012Z" transform="translate(-320.735 -162.613)" fill="#fff"/>
    <path id="Path_165" data-name="Path 165" d="M395.888,216.415c0-2.47.027-4.94.05-7.41q.009-1.019.016-2.039,0-.571.007-1.143a3.609,3.609,0,0,1,.082-.987,2.108,2.108,0,0,1,.994-1.258,3.619,3.619,0,0,1,.791-.284l.914-.264q4-1.158,8-2.326c.59-.172,1.19-.4,1.793-.514a1.544,1.544,0,0,1,1.388.46,2.157,2.157,0,0,1,.416,1.671q-.007,1.022-.019,2.044c-.021,1.694-.07,3.387-.077,5.081q0,.343,0,.685a.385.385,0,0,0,.769,0c0-1.743.047-3.485.072-5.228q.014-.991.022-1.981a5.171,5.171,0,0,0-.2-2.165,2.327,2.327,0,0,0-1.3-1.212,2.794,2.794,0,0,0-1.863.067l-8.275,2.407-1.909.553a3.264,3.264,0,0,0-1.627.92,2.924,2.924,0,0,0-.734,1.774c-.045.78-.012,1.572-.017,2.354-.019,2.55-.054,5.1-.06,7.649q0,.573,0,1.147a.385.385,0,0,0,.769,0Z" transform="translate(-319.122 -161.049)" fill="#211715"/>
  </g>
</svg>
