<svg xmlns="http://www.w3.org/2000/svg" width="144.43" height="161.935" viewBox="0 0 144.43 161.935">
  <g id="learning-school-svgrepo-com" transform="translate(-44.162)">
    <circle id="Ellipse_1" data-name="Ellipse 1" cx="64.215" cy="64.215" r="64.215" transform="translate(46.946 33.504)" fill="#59d8ff"/>
    <path id="Path_8" data-name="Path 8" d="M94.845,156.187a63.871,63.871,0,0,1,5.744-26.548,2.792,2.792,0,0,1,3.171-1.529l8.4,1.938a22.331,22.331,0,0,0,10.045,0l25.164-5.807a13.917,13.917,0,0,0,8.259-5.533,63.9,63.9,0,0,0-36.609-12.7l.034-.028c-.623-.018-1.242-.047-1.869-.047a64.216,64.216,0,1,0,40.011,114.424A64.2,64.2,0,0,1,94.845,156.187Z" transform="translate(-6.019 -72.428)" fill="#00c3f0"/>
    <path id="Path_9" data-name="Path 9" d="M151.412,135.967a170.587,170.587,0,0,0,17.092-4.414q-1.836-2.438-3.893-4.693c-4.953,1.48-9.959,2.766-15.021,3.771C146.131,121.5,141.474,114,136,108.74a64.454,64.454,0,0,0-37.638,0c-5.466,5.253-10.118,12.738-13.575,21.855-5.053-1.009-10.05-2.3-14.993-3.779q-2.058,2.25-3.9,4.69a170.487,170.487,0,0,0,17.068,4.422,115.388,115.388,0,0,0-4.831,31.426h-25.1c-.04.927-.071,1.856-.071,2.792s.031,1.865.071,2.792h25.1a115.385,115.385,0,0,0,4.83,31.421,168.436,168.436,0,0,0-17.085,4.4q1.838,2.438,3.9,4.691c4.948-1.481,9.95-2.766,15.008-3.773,3.449,9.1,8.082,16.6,13.533,21.859a64.472,64.472,0,0,0,37.736,0c5.451-5.26,10.085-12.758,13.533-21.86,5.057,1.007,10.058,2.295,15.006,3.776q2.057-2.25,3.9-4.692a168.679,168.679,0,0,0-17.084-4.405,115.405,115.405,0,0,0,4.829-31.421h25.1c.04-.927.071-1.856.071-2.792s-.031-1.865-.071-2.792h-25.1A115.426,115.426,0,0,0,151.412,135.967Zm-37.023,98.155c-9.792-1.557-18.4-11.2-23.995-25.451a166.194,166.194,0,0,1,23.995-2.139Zm0-33.173a171.719,171.719,0,0,0-25.881,2.383,109.885,109.885,0,0,1-4.794-30.393h30.675Zm0-33.594H83.715a109.885,109.885,0,0,1,4.793-30.388,170.468,170.468,0,0,0,25.882,2.413v27.975Zm0-33.595A166.025,166.025,0,0,1,90.4,131.607c5.592-14.24,14.2-23.88,23.989-25.436Zm5.584-27.589c9.8,1.557,18.409,11.21,24,25.466a166.09,166.09,0,0,1-24,2.126Zm0,127.951v-27.59a166.144,166.144,0,0,1,24,2.138C138.376,222.918,129.765,232.565,119.973,234.122Zm25.881-30.79a171.775,171.775,0,0,0-25.881-2.383v-28.01h30.675A109.853,109.853,0,0,1,145.854,203.331Zm-25.881-35.977V139.383A170.5,170.5,0,0,0,145.865,137a109.907,109.907,0,0,1,4.783,30.357Z" transform="translate(7.196 -72.427)" fill="#e4eaf8"/>
    <path id="Path_10" data-name="Path 10" d="M139.81,217.428c-5.323,9.361-12.218,15.484-19.836,16.695v-27a64.57,64.57,0,0,1-6.9-6.124,171.617,171.617,0,0,0-24.568,2.338,109.882,109.882,0,0,1-4.794-30.394H97.071q-.741-2.745-1.237-5.584H83.715a109.88,109.88,0,0,1,4.793-30.39c2.952.505,5.922.9,8.9,1.252.539-1.849,1.173-3.656,1.87-5.431-2.966-.321-5.928-.7-8.875-1.179,5.592-14.239,14.2-23.878,23.988-25.434V110.1c1.49-1.444,3.037-2.828,4.66-4.124-.623-.017-1.242-.047-1.869-.047a64.2,64.2,0,0,0-18.819,2.808c-5.466,5.253-10.118,12.737-13.574,21.854-5.053-1.009-10.049-2.3-14.993-3.778q-2.058,2.25-3.9,4.69a170.6,170.6,0,0,0,17.067,4.422,115.4,115.4,0,0,0-4.831,31.427h-25.1c-.04.927-.071,1.856-.071,2.792s.031,1.865.071,2.792h25.1a115.394,115.394,0,0,0,4.83,31.423,168.675,168.675,0,0,0-17.084,4.4q1.838,2.438,3.9,4.691c4.949-1.481,9.95-2.766,15.007-3.774,3.458,9.125,8.112,16.616,13.582,21.872a63.821,63.821,0,0,0,37.728-.087,51.581,51.581,0,0,0,9.292-12.56Q142.546,218.291,139.81,217.428Zm-25.42,16.695c-9.792-1.557-18.4-11.2-23.994-25.45a166.15,166.15,0,0,1,23.994-2.141Z" transform="translate(-6.02 -72.428)" fill="#d5dced"/>
    <rect id="Rectangle_14" data-name="Rectangle 14" width="5.584" height="30.712" transform="translate(161.417 13.96)" fill="#464655"/>
    <path id="Path_11" data-name="Path 11" d="M211.531,35.31H147.316l-3.25,26a8.376,8.376,0,0,0,6.428,9.2l25.163,5.807a16.748,16.748,0,0,0,7.534,0l25.163-5.807a8.376,8.376,0,0,0,6.428-9.2Z" transform="translate(-68.262 -24.142)" fill="#5b5d6e"/>
    <path id="Path_12" data-name="Path 12" d="M211.531,35.31H147.316l-3.25,26a8.376,8.376,0,0,0,6.428,9.2l25.163,5.807a16.755,16.755,0,0,0,3.767.429V60.063a2.792,2.792,0,0,1,2.284-2.745l31.838-5.9Z" transform="translate(-68.262 -24.142)" fill="#464655"/>
    <path id="Path_13" data-name="Path 13" d="M111.161,0,45.688,12.125a1.866,1.866,0,0,0,0,3.67L111.161,27.92l65.474-12.125a1.866,1.866,0,0,0,0-3.67Z" fill="#707487"/>
    <g id="Group_1" data-name="Group 1" transform="translate(158.632 41.88)">
      <circle id="Ellipse_2" data-name="Ellipse 2" cx="5.584" cy="5.584" r="5.584" transform="translate(0)" fill="#5b5d6e"/>
      <path id="Path_14" data-name="Path 14" d="M411.676,167.724h0a5.584,5.584,0,0,0-5.584,5.584v11.168a2.792,2.792,0,0,0,2.792,2.792h5.584a2.792,2.792,0,0,0,2.792-2.792V173.308A5.584,5.584,0,0,0,411.676,167.724Z" transform="translate(-406.092 -156.556)" fill="#5b5d6e"/>
    </g>
  </g>
</svg>
